<svg xmlns="http://www.w3.org/2000/svg" viewBox="0 0 1017.06 639.92"><defs><clipPath id="clip-path"><path class="cls-1" d="M0 642.18h1019V0H0v642.18z"/></clipPath><clipPath id="clip-path-2"><path class="cls-1" d="M1.17 641.97h1017.68V1.17H1.17v640.8z"/></clipPath><clipPath id="clip-path-10" transform="translate(-1.5 -1.94)"><path style="clip-path:url(#clip-path);clip-rule:evenodd;fill:none" d="M0 0h1019v642.18H0V0z"/></clipPath><clipPath id="clip-path-11" transform="translate(-1.5 -1.94)"><path style="fill:none" d="M0 642.18h1019V0H0v642.18z"/></clipPath><clipPath id="clip-path-12" transform="translate(-1.5 -1.94)"><path class="cls-1" d="M271.61 480.02h480.28v-53.59H271.61v53.59z"/></clipPath><clipPath id="clip-path-16" transform="translate(-1.5 -1.94)"><path class="cls-1" d="M1.17 641.97h1017.68V1.17H1.17v640.8z"/></clipPath><clipPath id="clip-path-17" transform="translate(-1.5 -1.94)"><path class="cls-3" d="M302 183.9a15.77 15.77 0 1 0 21-7.57 15.81 15.81 0 0 0-21 7.57Z"/></clipPath><clipPath id="clip-path-20" transform="translate(-1.5 -1.94)"><path class="cls-3" d="M601.6 420.1a16 16 0 1 0 22.49-2.21 16 16 0 0 0-22.49 2.21Z"/></clipPath><clipPath id="clip-path-23" transform="translate(-1.5 -1.94)"><path class="cls-3" d="m339.87 631.49 28.9-74.66a4.17 4.17 0 0 1 7.81 0l28.9 74.66Z"/></clipPath><clipPath id="clip-path-26" transform="translate(-1.5 -1.94)"><path class="cls-3" d="m759.5 631.72 28.9-74.65a4.16 4.16 0 0 1 7.8 0l28.9 74.65Z"/></clipPath><style>.cls-1,.cls-3,.cls-37,.cls-38,.cls-40,.cls-43,.cls-48{fill:none}.cls-1{clip-rule:evenodd}.cls-3{clip-path:url(#clip-path-2)}.cls-9{fill:#ffe7e0}.cls-10{fill:#ff9776}.cls-11,.cls-16{fill:#ffa78b}.cls-15{fill:#ff6d40}.cls-16{opacity:.16}.cls-17{fill:#ffdace}.cls-18{clip-path:url(#clip-path-12)}.cls-19{fill:#fff}.cls-20{clip-path:url(#clip-path-16)}.cls-21{fill:#ff8f6b}.cls-22{fill:#ffc2ae}.cls-23{fill:#ff8b66}.cls-24{fill:#ffd4c6}.cls-25{fill:#ffded4}.cls-26{fill:#ffe9e2}.cls-27{fill:#091218}.cls-28{fill:#ffb69f}.cls-29{clip-path:url(#clip-path-17)}.cls-37,.cls-38,.cls-40{stroke-miterlimit:10}.cls-43,.cls-48{stroke-linecap:round;stroke-linejoin:round}.cls-32{fill:#ff916e}.cls-34{clip-path:url(#clip-path-20)}.cls-37,.cls-48{stroke:#ff9776}.cls-37,.cls-38,.cls-43{stroke-width:1.48px}.cls-38,.cls-43{stroke:#ffa78b}.cls-40{stroke:#ff8b66;stroke-width:1.21px}.cls-44{clip-path:url(#clip-path-23)}.cls-45{fill:#fffcfb}.cls-46{fill:#ffd2c4}.cls-47{clip-path:url(#clip-path-26)}.cls-48{stroke-width:.64px}.cls-49{fill:#1a66b1}</style></defs><g id="Layer_2" data-name="Layer 2"><g id="Layer_1-2" data-name="Layer 1"><g style="clip-path:url(#clip-path-10)"><g style="clip-path:url(#clip-path-11)"><path d="M1008.41 457.72c11-35.29 13.4-72.91 5.59-109-12.24-56.48-51.62-125-165.36-154.43C633.41 138.36 558.72-25 357.35 27c0 0-108 19.57-159.18 198.35C147.13 403.91-53.19 407.05 15.8 562.54c11.3 25.39 41.6 53.11 85.18 79.31l816.42-2.79c56.4-67.67 74-126.25 91-181.34Z" transform="translate(-1.5 -1.94)" style="fill:#fff3ef"/><path class="cls-9" d="M815.78 330h-30.65v-33.59a35.48 35.48 0 0 0-27.38-34.47v-41.58h-11.3v40.76a35.46 35.46 0 0 0-32.28 35.29v34.48h-30.42v38.43h-2.1v71.39l-55.35-.35V355h-63.51v62.55h-44.51v60.79h-53.84v160.84h441.3V436.41h-90.19l.23-106.41Z" transform="translate(-1.5 -1.94)"/><path class="cls-9" d="M182.1 416.42v-79.9h30.07v-42.75h11.18v42.75h27.74v79.9h31v47.86h49.29V301.23h103.13v336.01H144V416.42h38.1z"/><path class="cls-10" d="m747 638.36-470 .35a32.24 32.24 0 0 1-32.28-32.15l534.41-.46A32.16 32.16 0 0 1 747 638.36Z" transform="translate(-1.5 -1.94)"/><path class="cls-11" d="m747 627.18-470 .35a32.28 32.28 0 0 1-30.3-21.08h-2a32.16 32.16 0 0 0 32.28 32.14l470-.35A32.16 32.16 0 0 0 779.19 606h-2A32.07 32.07 0 0 1 747 627.18Z" transform="translate(-1.5 -1.94)"/><path d="M542.4 617.05h-60.71a10.82 10.82 0 0 1-10.84-10.84l82.27-.11a10.75 10.75 0 0 1-10.72 10.95Z" transform="translate(-1.5 -1.94)" style="fill:#ff8862"/><path d="m751.69 606.1-479.41.35-.23-289.19a30.06 30.06 0 0 1 30.07-30.05l419.27-.35a30.06 30.06 0 0 1 30.07 30.05l.23 289.19Z" transform="translate(-1.5 -1.94)" style="fill:#ffc5b2"/><path style="fill:#ff7f56" d="M295.6 310.08h429.53v269.27H295.6V310.08z"/><path class="cls-15" d="M295.72 553.62h429.53v25.73H295.72v-25.73zM295.49 310.08h429.53v12.81H295.49v-12.81z"/><path class="cls-16" d="M438.7 310.08 295.6 453.45l.12 126.14h.35l269.18-269.51H438.7zM351.19 579.47h63.39l269.3-269.51h-63.51L351.19 579.47zM674.68 579.24l50.57-50.55-.12-95.62-151.49 146.28 101.04-.11z"/><path class="cls-17" d="M270.55 425.15h479.64v52.88H270.55v-52.88z"/><g class="cls-18"><path class="cls-19" d="M418.43 496.55h-41.25l35.54-81.18h41.25l-35.54 81.18zM332.43 497.55h-41.25l35.54-81.18h41.25l-35.54 81.18z"/></g><g class="cls-18"><path class="cls-19" d="M506.41 496.55h-41.26l35.55-81.18h41.25l-35.54 81.18z"/></g><g class="cls-18"><path class="cls-19" d="M594.39 496.55h-41.26l35.55-81.18h41.25l-35.54 81.18z"/></g><g class="cls-18"><path class="cls-19" d="M682.48 496.55h-41.25l35.43-81.18h41.37l-35.55 81.18z"/></g><g class="cls-20"><path class="cls-21" d="m233.6 335.66-9.33.35-5.47-1.75a5.92 5.92 0 0 0-6.76 2.33l-.7 1.05 27.38 15.14 5.28-11.41-10.37-5.71Z" transform="translate(-1.5 -1.94)"/><path class="cls-21" d="M238.61 353 211 337.76l.93-1.75a.62.62 0 0 1 .93-.23l27 14.9-1.25 2.32" transform="translate(-1.5 -1.94)"/><path class="cls-22" d="m242.47 339.43 7.22-12.46-7.22-12.93-10.38 19.68 10.38 5.71z"/><path class="cls-21" d="M300.72 269.39s-39-11.18-42.89-.7-26.56 57.19-26.56 57.19l17 8.85 25.52-44.26 34.38-3-7.46-18.05ZM268.9 349.87l-7.69 4.89-5.59 1.17a6 6 0 0 0-4.78 5.35l-.11 1.28h31.34l-.93-12.46-12.24-.23Z" transform="translate(-1.5 -1.94)"/><path class="cls-21" d="M282.19 362.56h-31.58v-2a.74.74 0 0 1 .7-.69h30.88v2.67" transform="translate(-1.5 -1.94)"/><path class="cls-22" d="m279.75 347.93.94-20.96-12.47-1.4-.82 22.36h12.35z"/><path class="cls-23" d="m306 267.53-36.82 1.63s-5.25.23-4.9 12.69.35 62.2.35 62.2l17.72.58 3.37-52.18 36.83-.47a19.77 19.77 0 0 0 18.06-11.64 14.58 14.58 0 0 0 1.05-9L306 267.53Z" transform="translate(-1.5 -1.94)"/><path class="cls-24" d="M271 260.19c0 3.49-2.33 4.08-5.82 4.08s-6.76-.47-6.76-4a6.26 6.26 0 0 1 6.29-6.29 6 6 0 0 1 6.29 6.17Z" transform="translate(-1.5 -1.94)"/><path class="cls-24" d="M275.43 263.68h-7.34a3.5 3.5 0 0 1-3.5-3.49 3.52 3.52 0 0 1 3.5-3.5h7.34a3.52 3.52 0 0 1 3.5 3.5 3.43 3.43 0 0 1-3.5 3.49Z" transform="translate(-1.5 -1.94)"/><path class="cls-25" d="m275.2 264.5-2.45-12 30.06-3.26 6.06-35.06c.59-3.14 5.25-7.1 8.39-6.52l-.93-.23c3.15.58 6.18 4.31 5.48 7.45L316 256.93a6 6 0 0 1-4.43 4.66l-36.37 2.91Z" transform="translate(-1.5 -1.94)"/><path class="cls-26" d="M335.21 208.36a5.31 5.31 0 0 1 1.86.47l.35.11c5.13 2 8.63 7.57 8.86 12.7l-4.66 49.85c-31.11-.24-35.54-3.85-35.54-3.85l2.44-50.89c.35-4.78 2.57-9.32 8.05-9.79l18.64 1.4Z" transform="translate(-1.5 -1.94)"/><path class="cls-22" d="M301 264c.23 3.5-2.1 4.2-5.59 4.43s-6.76 0-7-3.5a6.36 6.36 0 0 1 5.83-6.75A6.28 6.28 0 0 1 301 264Z" transform="translate(-1.5 -1.94)"/><path class="cls-22" d="m305.61 267.29-7.34.47a3.51 3.51 0 0 1-3.73-3.26 3.51 3.51 0 0 1 3.26-3.73l7.35-.46a3.5 3.5 0 0 1 3.72 3.26 3.5 3.5 0 0 1-3.26 3.72Z" transform="translate(-1.5 -1.94)"/><path class="cls-26" d="m305.38 268.11-3.26-11.76 32.74-5.25-1.86-30.39c.35-3.26 4-6.87 7.1-6.41 3.27.35 6.41 3.84 6.06 7.11l2.33 36.45a5.74 5.74 0 0 1-4.07 4.89l-39 5.36Z" transform="translate(-1.5 -1.94)"/><path class="cls-27" d="m248.74 227.69 35.78 3.38a2.48 2.48 0 0 1 2.21 2.22l3.73 32.14a2.49 2.49 0 0 1-2.68 2.8l-36.36-3.38a2.49 2.49 0 0 1-2.21-2.22l-3.15-32.14a2.4 2.4 0 0 1 2.68-2.8Z" transform="translate(-1.5 -1.94)"/><path class="cls-23" d="m246.65 227.46 35.77 3.38a2.49 2.49 0 0 1 2.22 2.21l3.72 32.15a2.48 2.48 0 0 1-2.68 2.79l-36.35-3.38a2.47 2.47 0 0 1-2.22-2.21L244 230.26a2.44 2.44 0 0 1 2.68-2.8Z" transform="translate(-1.5 -1.94)"/><path class="cls-27" d="m289.41 265.66 24.48 2.34a1.34 1.34 0 0 1 1.16 1.52 1.33 1.33 0 0 1-1.51 1.16l-25.87-2.33 1.74-2.68Z" transform="translate(-1.5 -1.94)"/><path class="cls-19" d="M267.16 247a3.93 3.93 0 1 1-3.5-4.31 4 4 0 0 1 3.5 4.31Z" transform="translate(-1.5 -1.94)"/><path class="cls-25" d="m330.45 225.76.81 22.83-30.65 5.82 26.92-8.39 2.92-20.26z"/><path class="cls-22" d="m315.75 205.33 2.1 5.48a5.29 5.29 0 0 0 4.66 3.49 5.43 5.43 0 0 0 5.36-7.45l-3.61-8.39-8.51 6.87Z" transform="translate(-1.5 -1.94)"/><path class="cls-28" d="M317.5 210.22s10-1.86 8.62-10.71-10.95-2-10.95-2l.93 8.73 1.4 4Z" transform="translate(-1.5 -1.94)"/><path class="cls-22" d="M302 183.9a15.77 15.77 0 1 0 21-7.57 15.81 15.81 0 0 0-21 7.57Z" transform="translate(-1.5 -1.94)"/><g class="cls-29"><path class="cls-23" d="M322.16 193.69s-2.45 12.69 6.76 12.92 4.19-23.76 4.19-23.76l-14.68-14.79-22.49 5.59 2.21 14.56s3.62 1.87 23-1.28l1.05 6.76Z" transform="translate(-1.5 -1.94)"/></g></g><g class="cls-29"><path class="cls-23" d="m311.45 181.85 7.34 10.83 6.41-7.1-13.75-3.73z"/></g><g class="cls-20"><path class="cls-22" d="M319.71 190.77a4.46 4.46 0 1 0 5.94-2.09 4.34 4.34 0 0 0-5.94 2.09Z" transform="translate(-1.5 -1.94)"/><path class="cls-17" d="M299 188s-3.38-12.46 4.66-20.15a16.08 16.08 0 0 1 23.39 1.15c2.8 3.27 5 8.27 5.25 15.84L299 188Z" transform="translate(-1.5 -1.94)"/><path d="m300.6 187.75-.12-7.81a3.7 3.7 0 0 1 3.5-3.72 3.71 3.71 0 0 1 3.85 3.26l.81 7.8" transform="translate(-1.5 -1.94)" style="stroke-width:.16px;stroke-miterlimit:10;stroke:#ffcbba;fill:none"/><path style="stroke-width:.63px;stroke-linecap:round;stroke-linejoin:round;stroke:#fff;fill:none" d="m330.68 182.78-36.24 3.5"/><path class="cls-22" d="m660.58 602.41 8.15 7.81-9.2 5.01-7.93-7.81 8.98-5.01z"/><path class="cls-21" d="m605 545.54 5.47 24a36.88 36.88 0 0 0 6.18 13.62l35.78 32 14.1-11.53L636 571.39l-11.18-42.63L605 545.54ZM660.68 616.93l-2.91 9.32-3.38 4.66a5.93 5.93 0 0 0 .11 7.1l.7.93 22.8-21.2-9.09-8.5-8.27 7.69Z" transform="translate(-1.5 -1.94)"/><path class="cls-21" d="m676.89 615.92-22.96 21.44-1.86-1.98 22.96-21.43 1.86 1.97"/><path class="cls-22" d="m582.5 616.97-3.03 10.25-10.49-2.91 3.03-9.9 10.49 2.56z"/><path class="cls-23" d="m598 518.75-29.37 99 18.53 4.66 16.55-49.61L624 540.29a30.1 30.1 0 0 0 2.92-4.54 19.51 19.51 0 0 0 2.33-9.43l-.12-6.41-31.13-1.16Z" transform="translate(-1.5 -1.94)"/><path class="cls-21" d="m571.07 625.32-9.21 3.37-5.71.24a5.94 5.94 0 0 0-5.59 4.54l-.35 1.16 31 5.13 1.16-12.46-11.3-2Z" transform="translate(-1.5 -1.94)"/><path class="cls-21" d="m579.7 638.05-31.23-5.24.47-2.68 31.23 5.25-.47 2.67"/><path class="cls-32" d="m555.58 416.3-11.77 18.52 5.6 4.07 12.35-19.56-6.18-3.03z"/><path d="M541.7 387.6s5.48 22.95 33.21 31.92a2.13 2.13 0 0 1 1.52 1.74c.35 2.68.35 8.39-5.83 10.14a2.94 2.94 0 0 1-1.75-.24c-4.19-2.68-25.05-14.79-45.33-11.29l18.18-32.27Z" transform="translate(-1.5 -1.94)" style="fill:#ff9c7d"/><path class="cls-32" d="M541.7 387.6s-5.13 22.83-18.18 32.15c.12 0 1.87-20 18.18-32.15Z" transform="translate(-1.5 -1.94)"/><path class="cls-22" d="M541.47 435.47c-.82 4.2 2.56 9.32 6.76 10.14a7.9 7.9 0 0 0 9.2-6.06c.82-4.19-2.56-9.32-6.76-10.13a7.76 7.76 0 0 0-9.2 6.05Z" transform="translate(-1.5 -1.94)"/><path class="cls-22" d="m562.23 445.88-8.28-8.5-5.36 6.52 13.64 10.02"/><path class="cls-25" d="m562.33 439.9-8.63 12.93 23.78 21.66a11.3 11.3 0 0 0 4.42.47l31.35-4.08a9 9 0 0 0 8.51-9.32c-.23-4.89.7-12.11-4.2-11.88l-36.35 7.46-18.88-17.24Z" transform="translate(-1.5 -1.94)"/><path class="cls-26" d="M632.6 469.48a18 18 0 0 0-8.05-17.35c-2.56-1.63-5.24-2.8-7.1-2.45-6.3 1.05-12.71 3.85-15.39 12.35-4.66 14.32-6.06 56.72-6.06 56.72l33.57 1.16 3-50.43Z" transform="translate(-1.5 -1.94)"/><path class="cls-25" d="m618.74 468.59 10.14 37.16 1.98-31.45-12.12-5.71z"/><path class="cls-22" d="M661.38 543.79c3.14-2.91 3.38-9.09.46-12.23a7.74 7.74 0 0 0-11-.47c-3.15 2.91-3.38 9.09-.47 12.23a7.75 7.75 0 0 0 11 .47Z" transform="translate(-1.5 -1.94)"/><path class="cls-22" d="m644.73 515.41 6.06 15.14 8.27-2.21-5.13-16.07"/><path class="cls-26" d="m646.58 529 16.78-3.73-11.42-39a12.91 12.91 0 0 0-2-4L629 456.2c-2.79-4.07-7.57-3.37-11.65-.46a8.94 8.94 0 0 0-2.21 12.46l20.16 24.23L646.58 529Z" transform="translate(-1.5 -1.94)"/><path class="cls-22" d="m609.64 444.56.58 5.82a5.23 5.23 0 0 0 3.73 4.54 5.46 5.46 0 0 0 7.11-5.94l-1.4-9.2-10 4.78Z" transform="translate(-1.5 -1.94)"/><path class="cls-28" d="M610.22 449.8s10.37-.35 11.07-9.32-10.29-3.61-10.29-3.61l-1.28 8.85.46 4.08Z" transform="translate(-1.5 -1.94)"/><path class="cls-22" d="M601.6 420.1a16 16 0 1 0 22.49-2.21 16 16 0 0 0-22.49 2.21Z" transform="translate(-1.5 -1.94)"/><g class="cls-34"><path class="cls-23" d="M618.84 434.77s-5.59 11.77 3.5 14.33 10-22.25 10-22.25l-10.72-18.16-23.42-.24-1.4 14.79s3 2.8 22.84 4.43l-.82 7.1Z" transform="translate(-1.5 -1.94)"/></g></g><g class="cls-34"><path class="cls-23" d="m610.82 420.84 4.54 12.46 8.04-5.35-12.58-7.11z"/></g><g class="cls-20"><path class="cls-22" d="M617.21 431.28a4.55 4.55 0 1 0 6.41-.58 4.48 4.48 0 0 0-6.41.58Z" transform="translate(-1.5 -1.94)"/><path class="cls-17" d="M597.4 424.76s-.81-13.05 8.86-19c7.92-4.89 18.64-2.21 23 5.94 2.09 3.85 3.26 9.2 1.86 16.66l-33.68-3.61Z" transform="translate(-1.5 -1.94)"/><path d="m599.15 424.87 1.52-7.68a3.58 3.58 0 0 1 4.19-2.91 3.64 3.64 0 0 1 3 4.07l-.81 7.81" transform="translate(-1.5 -1.94)" style="stroke-width:.16px;stroke-miterlimit:10;stroke:#ffcbba;fill:none"/><path style="stroke-width:.64px;stroke-linecap:round;stroke-linejoin:round;stroke:#fff;fill:none" d="m629.58 426.55-36.59-4.08"/><path class="cls-37" d="m852.85 521.12-37.87 37.39M852.85 481.29l-37.87 37.27M852.85 441.46l-37.87 37.27M852.85 401.62l-37.87 37.27M852.85 361.79l-37.87 37.27M852.85 321.84l-37.87 37.39M852.85 282.01l-37.87 37.27M852.85 242.18l-37.87 37.27M852.85 202.35l-37.87 37.27M852.85 162.4l-37.87 37.39M852.85 122.57l-37.87 37.27M814.98 518.56h37.87M814.98 478.73h37.87M814.98 438.89h37.87M814.98 399.06h37.87M814.98 359.23h37.87M814.98 319.28h37.87M814.98 279.45h37.87M814.98 239.62h37.87M814.98 199.79h37.87M814.98 159.84h37.87"/><path class="cls-38" d="M814.98 569.22V128.97M852.85 569.22V128.97"/><path class="cls-23" d="M795.52 558.51h75.39v78.26h-75.39v-78.26z"/><path class="cls-10" d="M862 130.91h-54.49a5 5 0 0 1-5-5V61.38a5 5 0 0 1 5-5H862a5 5 0 0 1 5 5v64.52a5 5 0 0 1-5 5Z" transform="translate(-1.5 -1.94)"/><path d="M839.44 109.25h-31.12V74.31h31.12a3.87 3.87 0 0 1 3.84 3.84v27.25a3.88 3.88 0 0 1-3.84 3.85Z" transform="translate(-1.5 -1.94)" style="fill:#ff8e6a"/><path class="cls-40" d="m565.25 133.05 30.3 87.93M544.16 122.57l-58.96 79.78"/><path d="M561.86 173.65v.7a16.08 16.08 0 0 1-32.16 0v-.7h-54v140.23H616V173.65Z" transform="translate(-1.5 -1.94)" style="stroke:#ff9e7f;stroke-width:4px;stroke-miterlimit:10;fill:#fff3ef"/><path class="cls-23" d="M583.42 117.05a25.29 25.29 0 1 1-25.29-25.27 25.28 25.28 0 0 1 25.29 25.27Z" transform="translate(-1.5 -1.94)"/><path d="M576.08 117.05a17.95 17.95 0 1 1-18-17.94 18 18 0 0 1 18 17.94Z" transform="translate(-1.5 -1.94)" style="fill:#ff835c"/><path class="cls-37" d="M655.92.74v53.69M607.79.74v53.69M703.93.74v53.69M757.18.74v53.69M806.82.74v53.69M858.44.74v53.69M909.02.74v53.69M605.22 54.43 655.92.74M655.92 54.43 706.49.74M706.49 54.43 757.18.74M757.18 54.43 807.75.74M807.75 54.43 858.44.74M858.44 54.43 909.02.74"/><path class="cls-43" d="M556.63 54.43h412.75L913.8.74H599.28l-42.65 53.69h0zM556.63 54.43v60.68"/><path class="cls-17" d="m339.87 631.49 28.9-74.66a4.17 4.17 0 0 1 7.81 0l28.9 74.66Z" transform="translate(-1.5 -1.94)"/><g class="cls-44"><path class="cls-45" d="M345.13 570.97h51.27v15.84h-51.27v-15.84z"/></g></g><g class="cls-44"><path class="cls-45" d="M342.33 600.9h58.03v15.84h-58.03V600.9z"/></g><g class="cls-20"><path class="cls-46" d="M333.13 629.55h76.44v6.29h-76.44v-6.29z"/><path class="cls-17" d="m759.5 631.72 28.9-74.65a4.16 4.16 0 0 1 7.8 0l28.9 74.65Z" transform="translate(-1.5 -1.94)"/><g class="cls-47"><path class="cls-45" d="M764.64 571.2h51.27v15.84h-51.27V571.2z"/></g></g><g class="cls-47"><path class="cls-45" d="M761.84 601.13h58.03v15.84h-58.03v-15.84z"/></g><g class="cls-20"><path class="cls-46" d="M752.63 629.78h76.45v6.29h-76.45v-6.29z"/><path class="cls-11" d="M191.85 447.42a60 60 0 1 1-68.2 50.49 60 60 0 0 1 68.2-50.49Z" transform="translate(-1.5 -1.94)"/><path class="cls-48" d="M181.4 483.38v152.46M158.1 486.53l23.3 26.09"/><path class="cls-48" d="M203.65 513.16c-1.63 1.63-20.75 21.43-20.75 21.43" transform="translate(-1.5 -1.94)"/><path class="cls-48" d="M.9 637.24h1006.47"/></g></g></g><path class="cls-49" d="M607.55 239.63h-5.13c-.64 0-.77.17-.77.79v17.14c0 .81-.23 1-1 .94a26.39 26.39 0 0 0-3 0c-.65 0-.84-.15-.84-.82v-17.14c0-.76-.18-.95-.92-.91-1.43.06-2.86 0-4.29 0-.62 0-.74-.2-.72-.76 0-1.06.05-2.13 0-3.19 0-.64.15-.79.79-.79h15.71c.17 1.6.17 3.18.17 4.74ZM581.43 258.48h-4c-.44 0-.66-.08-.71-.55a96.19 96.19 0 0 0-.54-3.74c-.08-.57.31-.42.57-.42h8.08a2.35 2.35 0 1 0 .14-4.7h-4.46a7.07 7.07 0 1 1 0-14.14h6.73c.57 0 .7.16.69.7v3.28c0 .58-.12.76-.73.76h-6.39a2.37 2.37 0 1 0 0 4.71 38.7 38.7 0 0 1 5.7.14 7.05 7.05 0 0 1-1.11 14h-4ZM573.43 258.11q-3.15-10-6.3-19.92a5.68 5.68 0 0 0-1.2-2 3.67 3.67 0 0 0-5.08-.49 5.75 5.75 0 0 0-1.93 3.08c-1.45 4.59-2.92 9.17-4.36 13.76l-1.87 6h4.21c.45 0 .57-.21.67-.57.49-1.63 1-3.25 1.48-4.89a.7.7 0 0 1 .81-.61h6.47c.51 0 .74.13.88.64.45 1.61 1 3.21 1.46 4.81.1.32.14.64.63.62h4.24a1.66 1.66 0 0 0-.11-.43Zm-8.26-10.4h-4c-.38 0-.42-.17-.32-.47l2.22-7.27h.19c.74 2.44 1.5 4.88 2.24 7.34.06.27-.01.42-.33.4ZM552.88 244.34c-.21 1.45-.43 2.8-.59 4.16 0 .47-.26.57-.69.57h-6.56c-.58 0-.76.13-.76.72v8c0 .61-.18.76-.76.72-1-.05-2.06-.05-3.11 0-.69 0-.89-.13-.87-.85v-18.01a4.69 4.69 0 0 1 4.7-4.71h10.77c.53 0 .72.08.6.69-.22 1.09-.34 2.22-.47 3.33-.07.54-.25.72-.82.72h-8.33c-1.26 0-1.72.46-1.72 1.72v2.36c0 .53.16.65.66.65h7Z" transform="translate(-1.5 -1.94)"/><path d="M532.64 249h-5.56c-.57 0-.62.2-.64.67a10.37 10.37 0 0 1-1.56 5.09c-1.83 2.94-5.23 4.42-8.16 3.55a9.22 9.22 0 0 0 4.91-7.1 41.83 41.83 0 0 0 .12-6.13c0-.6.12-.79.77-.79h9.93c.3 0 .51 0 .62-.15a.77.77 0 0 0 .15-.62c-.06-.66-.05-6.78 0-15.39q-16 .09-31.93.23a6.42 6.42 0 0 0-1.85.27 14.23 14.23 0 0 0-7 4.58 12.24 12.24 0 0 0-2.91 8.68v11.81h18.09a4.72 4.72 0 0 0 4.74-3.95c.12-.61 0-.77-.64-.76H496.9c-.25 0-.67.18-.66-.37.09-2.24-.25-4.49.32-6.7a9.34 9.34 0 0 1 8.8-7.05c3.7-.06 7.41 0 11.11 0 .49 0 .69.08.67.64-.05 1.14-.05 2.3 0 3.45 0 .52-.13.65-.66.65h-10.81a4.73 4.73 0 0 0-4.7 3.92c-.11.61 0 .81.68.81h14.63c.59 0 .84.08.81.76-.12 2.11.2 4.25-.34 6.35a9.3 9.3 0 0 1-8.74 7c-2.73.05-12.19 0-18.54 0v5.91c0 .53 0 .82.72.82h29.68a13.46 13.46 0 0 0 12.4-8.5 18.51 18.51 0 0 0 .94-7.27c0-.47-.32-.41-.57-.41Zm-10.87-14.23h4.73v4.72h-4.73Z" transform="translate(-1.5 -1.94)" style="fill:#ef6629"/></g></g></svg>