<?xml version="1.0" encoding="utf-8"?>
<!-- Generator: Adobe Illustrator 23.0.1, SVG Export Plug-In . SVG Version: 6.00 Build 0)  -->
<svg version="1.1" id="Layer_1" xmlns="http://www.w3.org/2000/svg" xmlns:xlink="http://www.w3.org/1999/xlink" x="0px" y="0px"
	 viewBox="0 0 841.9 595.3" style="enable-background:new 0 0 841.9 595.3;" xml:space="preserve">
<style type="text/css">
	.st0{fill:#1A66B1;}
	.st1{fill:#EF6629;}
</style>
<g>
	<g>
		<path class="st0" d="M797,220.1c-10.2,0-20.3,0.2-30.5-0.1c-3.8-0.1-4.6,1-4.6,4.7c0.1,34,0,68,0.2,101.9c0,4.8-1.4,5.8-5.8,5.6
			c-5.8-0.4-11.7-0.3-17.5,0c-3.9,0.2-5-0.9-5-4.9c0.2-34,0-68,0.2-101.9c0-4.5-1.1-5.6-5.5-5.4c-8.5,0.4-17-0.1-25.5,0.2
			c-3.7,0.1-4.4-1.2-4.3-4.5c0.2-6.3,0.3-12.7,0-19c-0.2-3.8,0.9-4.7,4.7-4.7c31.1,0.2,62.3,0.1,93.4,0.1
			C797,201.4,797,210.8,797,220.1z"/>
		<path class="st0" d="M641.7,332.1c-8,0-16-0.1-24,0.1c-2.6,0.1-3.9-0.5-4.2-3.3c-0.9-7.4-2-14.8-3.2-22.2
			c-0.5-3.4,1.8-2.5,3.4-2.5c16,0,32,0,48-0.1c7.8,0,13.6-4.9,14.4-11.8c1.1-8.8-4.7-15.9-13.6-16.1c-8.8-0.2-17.7,0-26.5-0.1
			c-24.3-0.2-43-18.5-43-42c0-23.6,18.7-41.8,43-42c13.3-0.1,26.7,0.1,40-0.1c3.4,0,4.2,1,4.1,4.2c-0.2,6.5-0.3,13,0,19.5
			c0.1,3.4-0.7,4.5-4.3,4.5c-12.7-0.2-25.3-0.1-38-0.1c-9.3,0-15.6,5.7-15.7,13.8c-0.1,8.4,6.3,14,15.8,14.2
			c11.3,0.3,22.7-1.2,33.9,0.8c21.1,3.8,35.8,23,34.1,44.5c-1.6,21.2-19.4,38.1-40.7,38.6C657.4,332.2,649.5,332.1,641.7,332.1
			L641.7,332.1z"/>
		<path class="st0" d="M594.2,329.9c-12.5-39.5-25-78.9-37.5-118.4c-1.5-4.5-3.9-8.5-7.1-12c-8.4-9-20.6-10.2-30.2-2.9
			c-6.2,4.7-9.3,11.2-11.5,18.3c-8.6,27.3-17.3,54.5-25.9,81.8c-3.7,11.7-7.3,23.3-11.1,35.4c8.7,0,16.8-0.1,25,0.1
			c2.7,0,3.4-1.3,4-3.4c2.9-9.7,6-19.3,8.8-29.1c0.8-2.7,1.9-3.6,4.8-3.6c12.8,0.2,25.7,0.2,38.5,0c3,0,4.4,0.8,5.2,3.8
			c2.7,9.6,5.8,19.1,8.7,28.6c0.6,1.9,0.8,3.8,3.7,3.7c8.3-0.2,16.7-0.1,25.2-0.1C594.6,331.1,594.5,330.5,594.2,329.9z
			 M545.1,268.1c-8-0.1-16-0.1-23.9,0c-2.3,0-2.5-1-1.9-2.8c4.4-14.4,8.8-28.8,13.2-43.2h1.1c4.4,14.5,8.9,29,13.3,43.6
			C547.4,267.3,547,268.2,545.1,268.1z"/>
		<path class="st0" d="M472,248.1c-1.2,8.6-2.5,16.6-3.5,24.7c-0.3,2.8-1.5,3.4-4.1,3.4c-13-0.1-26,0.1-39-0.1
			c-3.4-0.1-4.5,0.8-4.5,4.3c0.2,15.8,0,31.7,0.2,47.5c0,3.6-1.1,4.5-4.5,4.3c-6.2-0.3-12.3-0.3-18.5,0c-4.1,0.2-5.3-0.8-5.2-5.1
			c0.2-28.2,0.1-56.3,0.1-84.5c0-7.5-0.1-15,0-22.5c0.2-15.7,12.2-27.9,27.9-28c21.3-0.2,42.7,0,64-0.1c3.2,0,4.3,0.5,3.6,4.1
			c-1.3,6.5-2,13.2-2.8,19.8c-0.4,3.2-1.5,4.3-4.9,4.3c-16.5-0.2-33-0.1-49.5-0.1c-7.5,0-10.2,2.7-10.2,10.2c0,4.7,0.2,9.3-0.1,14
			c-0.2,3.2,0.9,3.9,3.9,3.9c13.8-0.2,27.7-0.1,41.5-0.1C468.2,248.1,470,248.1,472,248.1z"/>
	</g>
	<g>
		<path class="st1" d="M351.7,276c-11,0-22,0.1-33-0.1c-3.4-0.1-3.7,1.2-3.8,4c-0.5,10.9-3.6,21-9.3,30.2
			c-10.9,17.5-31.1,26.3-48.5,21.1c17-9.1,26.3-23.5,29.2-42.2c1.9-12.1,0.6-24.3,0.7-36.4c0.1-3.6,0.7-4.7,4.6-4.7
			c19.7,0.2,39.3,0,59,0.2c1.8,0,3-0.2,3.7-0.9c1.2-1.2,0.9-3.2,0.9-3.7c-0.4-3.9-0.3-40.3-0.1-91.5c-63.3,0.4-126.6,0.9-189.8,1.4
			c-3.7,0-7.4,0.5-11,1.6c-11.8,3.6-29,11.1-41.8,27.2c-10,12.6-17.3,25.3-17.3,51.6c0,23.4,0,46.8,0,70.2c2.1-0.1,3.5-0.1,4-0.1
			c10.2,0,58.4,0.2,103.5,0c14.4-0.1,25.6-9.6,28.2-23.5c0.7-3.6-0.2-4.6-3.8-4.5c-14.8,0.2-29.4,0.1-44.1,0.1h-44
			c-1.5,0-4,1.1-3.9-2.2c0.5-13.3-1.5-26.7,1.9-39.8c6.1-24,27.6-41.5,52.3-41.9c22-0.4,44-0.1,66-0.2c2.9,0,4.1,0.5,4,3.8
			c-0.3,6.8-0.3,13.7,0,20.5c0.1,3.1-0.8,3.9-3.9,3.9c-21.3-0.1-42.7-0.1-64,0c-14.1,0.1-25.2,9.5-27.9,23.3c-0.7,3.6-0.1,4.8,4,4.8
			c29-0.2,58,0,87-0.2c3.5,0,5,0.5,4.8,4.5c-0.7,12.6,1.2,25.3-2,37.8c-6.1,23.6-27.5,41.2-52,41.6c-16.2,0.3-72.4,0.2-110.2,0.1
			c0,11.5,0,22.9,0,34.4v0.7c0,3.2,0,4.9,4.3,4.9c58.8-0.2,117.6,0,176.4-0.2c32.6-0.1,61.6-20.3,73.7-50.5
			c5.6-14,5.8-28.5,5.6-43.2C355.1,275.4,353.2,276,351.7,276z M287.1,191.4h28.1v28.1h-28.1V191.4z"/>
	</g>
</g>
</svg>
